<svg width="24" height="24" viewBox="0 0 24 24" fill="none" xmlns="http://www.w3.org/2000/svg">
<path fill-rule="evenodd" clip-rule="evenodd" d="M15.6355 9.62395H21.5194C21.8701 9.62352 22.2129 9.7286 22.5031 9.92553C22.7933 10.1225 23.0176 10.4021 23.1468 10.7282C23.276 11.0543 23.3041 11.4117 23.2275 11.7539C23.1509 12.0962 22.9731 12.4075 22.7172 12.6474C22.6484 12.7141 22.556 12.7508 22.4601 12.7494H17.1581C17.0587 12.7494 16.9633 12.7889 16.8929 12.8592C16.8226 12.9296 16.7831 13.0249 16.7831 13.1244C16.7831 13.2238 16.8226 13.3192 16.8929 13.3896C16.9633 13.4599 17.0587 13.4994 17.1581 13.4994H21.735C21.8309 13.498 21.9233 13.5347 21.9921 13.6013C22.1664 13.7645 22.3054 13.9616 22.4004 14.1806C22.4953 14.3996 22.5444 14.6358 22.5444 14.8745C22.5444 15.1132 22.4953 15.3494 22.4004 15.5684C22.3054 15.7874 22.1664 15.9845 21.9921 16.1476C21.9233 16.2143 21.8309 16.251 21.735 16.2496H17.4115C17.3121 16.2496 17.2167 16.2891 17.1463 16.3595C17.076 16.4298 17.0365 16.5252 17.0365 16.6246C17.0365 16.7241 17.076 16.8195 17.1463 16.8898C17.2167 16.9601 17.3121 16.9996 17.4115 16.9996H20.9438C21.0156 16.9987 21.0861 17.0193 21.1461 17.0588C21.6477 17.3803 22.028 17.8516 22.028 18.3748C22.028 18.8979 21.647 19.3702 21.1445 19.6916C21.0845 19.7311 21.0142 19.7516 20.9424 19.7507H17.6649C17.5654 19.7507 17.47 19.7902 17.3997 19.8606C17.3294 19.9309 17.2899 20.0263 17.2899 20.1257C17.2899 20.2252 17.3294 20.3206 17.3997 20.3909C17.47 20.4612 17.5654 20.5007 17.6649 20.5007H20.7192C20.7667 20.5 20.8139 20.5087 20.858 20.5263C20.9022 20.5438 20.9424 20.5699 20.9765 20.603C21.2319 20.843 21.4093 21.1543 21.4856 21.4964C21.5619 21.8386 21.5336 22.1957 21.4043 22.5216C21.275 22.8474 21.0508 23.1268 20.7607 23.3236C20.4706 23.5204 20.1281 23.6254 19.7775 23.625H10.4682C9.60372 23.625 8.76917 23.3087 8.12192 22.7357C7.7754 22.4214 7.3225 22.2503 6.8547 22.257H5.79673V11.7882C6.15569 11.7492 6.4959 11.6079 6.77688 11.3811C7.05786 11.1544 7.2678 10.8517 7.38172 10.509L10.272 2.12512C10.5857 1.21509 11.0595 0.375 12.0222 0.375C12.4859 0.37636 12.9303 0.561185 13.2582 0.889102C13.5861 1.21702 13.7709 1.66138 13.7723 2.12512V8.47402C13.7729 8.77883 13.8942 9.07099 14.1097 9.28652C14.3253 9.50205 14.6175 9.62338 14.9223 9.62395H15.6355ZM4.35261 10.8469H1.42475C1.24079 10.8474 1.06453 10.9207 0.934449 11.0508C0.804373 11.1809 0.731062 11.3571 0.73053 11.5411V22.7649C0.731062 22.9489 0.804373 23.1252 0.934449 23.2552C1.06453 23.3853 1.24079 23.4586 1.42475 23.4592H4.35261C4.53656 23.4586 4.71283 23.3853 4.84291 23.2552C4.97298 23.1252 5.04629 22.9489 5.04683 22.7649V11.5409C5.04623 11.3569 4.97289 11.1807 4.84282 11.0507C4.71276 10.9207 4.53652 10.8474 4.35261 10.8469Z" fill="white"/>
</svg>