<svg width="24" height="24" viewBox="0 0 24 24" fill="none" xmlns="http://www.w3.org/2000/svg">
<path d="M17.7994 13.2043C14.8231 13.2043 12.4016 15.6258 12.4016 18.6021C12.4016 21.5785 14.8231 23.9999 17.7994 23.9999C20.7757 23.9999 23.1972 21.5785 23.1972 18.6021C23.1972 15.6258 20.7758 13.2043 17.7994 13.2043ZM17.1689 20.864L15.1378 18.8534L16.1284 17.8527L17.161 18.875L19.4665 16.5568L20.4649 17.5497L17.1689 20.864Z" fill="white"/>
<path d="M11.1812 0L0.802734 5.99203V17.9761L11.1812 23.9681L12.6924 23.0957C12.3798 22.741 12.1049 22.3548 11.872 21.9434L11.1812 22.3422L10.4772 21.9357V12.3905L2.21086 7.61798V6.80498L2.91492 6.39848L11.1812 11.1711L14.6103 9.19125L6.34402 4.41872L7.75214 3.60577L16.0185 8.3783L19.4475 6.39848L20.1516 6.80498V7.61798L11.8853 12.3905V15.2372C13.0583 13.1836 15.2698 11.7963 17.7994 11.7963C19.1886 11.7963 20.4817 12.215 21.5598 12.9323V5.99203L11.1812 0Z" fill="white"/>
</svg>