<svg width="26" height="16" viewBox="0 0 26 16" fill="none" xmlns="http://www.w3.org/2000/svg">
<path fill-rule="evenodd" clip-rule="evenodd" d="M18.5352 0.569782C20.7893 1.09283 21.6517 2.41096 22.7327 4.22522H18.5352V0.569782ZM5.36138 4.37756C5.80277 4.37756 6.1231 4.59059 6.1231 5.0885C6.1231 5.50846 5.78332 5.84905 5.36357 5.85022H0.761719C0.340996 5.85022 0 6.19142 0 6.61194C0 7.03266 0.340996 7.37366 0.761719 7.37366H7.61719C8.04187 7.37366 8.3819 7.7144 8.3819 8.13538C8.3819 8.5561 8.04091 8.89709 7.62018 8.89709H0.761719C0.340996 8.89709 0 9.23809 0 9.65881C0 10.0795 0.340996 10.4205 0.761719 10.4205H2.4375V12.7057C2.4375 13.1264 2.7785 13.4674 3.19922 13.4674H4.73037C5.00332 14.8119 6.19135 15.8033 7.5918 15.8033C8.99224 15.8033 10.1803 14.8119 10.4532 13.4674H18.1874C18.4604 14.8119 19.6484 15.8033 21.0488 15.8033C22.4493 15.8033 23.6373 14.8119 23.9102 13.4674H25.2383C25.659 13.4674 26 13.1264 26 12.7057V8.13538C26 5.90039 23.6426 5.75201 23.6404 5.74866H17.7734C17.3527 5.74866 17.0117 5.40766 17.0117 4.98694V0.416626H3.19922C2.7785 0.416626 2.4375 0.757622 2.4375 1.17834V2.85413H1.52344C1.10271 2.85413 0.761719 3.19512 0.761719 3.61584C0.761719 4.03657 1.10271 4.37756 1.52344 4.37756H5.36138ZM22.0363 11.896C22.5816 12.4413 22.5816 13.3258 22.0363 13.8711C21.1591 14.7483 19.6523 14.1242 19.6523 12.8834C19.6523 11.6428 21.1591 11.0188 22.0363 11.896ZM8.57924 11.896C9.12458 12.4413 9.12458 13.3258 8.57924 13.8711C7.70209 14.7483 6.19531 14.1242 6.19531 12.8834C6.19531 11.6428 7.70209 11.0188 8.57924 11.896Z" fill="white"/>
</svg>