<svg width="24" height="24" viewBox="0 0 24 24" fill="none" xmlns="http://www.w3.org/2000/svg">
<path fill-rule="evenodd" clip-rule="evenodd" d="M17.771 14.1961C17.7726 14.0936 17.8144 13.9959 17.8875 13.924C17.9605 13.8521 18.0588 13.8118 18.1613 13.8118C18.2638 13.8118 18.3622 13.8521 18.4352 13.924C18.5082 13.9959 18.55 14.0936 18.5516 14.1961V18.1613C18.5516 18.2648 18.5104 18.3641 18.4372 18.4373C18.3641 18.5104 18.2648 18.5516 18.1613 18.5516H15.6402C15.5367 18.5516 15.4374 18.5105 15.3642 18.4373C15.291 18.3641 15.2499 18.2648 15.2499 18.1613C15.2499 18.0578 15.291 17.9585 15.3642 17.8853C15.4374 17.8121 15.5367 17.771 15.6402 17.771H17.771V14.1961ZM18.1613 12.6136C21.2251 12.6136 23.7088 15.0975 23.7088 18.1613C23.7088 21.225 21.2251 23.7088 18.1613 23.7088C15.0975 23.7088 12.6139 21.2251 12.6139 18.1613C12.6139 15.0975 15.0975 12.6136 18.1613 12.6136ZM10.4398 0.28125L13.8285 2.23753L3.67985 8.09681V10.8867L7.03395 12.8231V10.0335L17.1826 4.17389L20.5885 6.14062V12.3157C19.8412 12.005 19.0214 11.8331 18.1614 11.8331C14.6664 11.8331 11.8333 14.6664 11.8333 18.1613C11.8333 19.6568 12.3523 21.0309 13.2197 22.1137L10.4398 23.7188L0.29126 17.8595V6.14062L10.4398 0.28125Z" fill="white"/>
</svg>