<svg width="24" height="18" viewBox="0 0 24 18" fill="none" xmlns="http://www.w3.org/2000/svg">
<path d="M23.1031 3.32736L22.867 1.98833C22.6763 0.909437 21.5216 0.211087 20.2872 0.42861L4.2269 3.26071H22.4193C22.654 3.26071 22.8825 3.28436 23.1031 3.32736ZM22.4193 4.93336H1.58096C0.709226 4.93336 0 5.50626 0 6.21017V16.3341C0 17.038 0.709226 17.6109 1.58096 17.6109H22.4193C23.2908 17.6109 24 17.038 24 16.3341V6.21017C23.9999 5.506 23.2908 4.93336 22.4193 4.93336ZM7.43284 16.3107H5.76019V14.8711H7.43284V16.3107ZM7.43284 13.4314H5.76019V11.9919H7.43284V13.4314ZM7.43284 10.5523H5.76019V9.11259H7.43284V10.5523ZM7.43284 7.67301H5.76019V6.23331H7.43284V7.67301ZM19.7226 9.40611L18.4355 10.6102L19.5952 14.4839L18.9456 15.1334C18.9113 15.1676 18.8649 15.1867 18.8166 15.1867C18.7682 15.1867 18.7218 15.1676 18.6875 15.1334L16.9588 11.9916L15.3689 13.5598L15.6221 14.7956L15.2175 15.2004C15.2048 15.2132 15.1896 15.2234 15.173 15.2303C15.1563 15.2372 15.1385 15.2408 15.1204 15.2408C15.1024 15.2408 15.0845 15.2373 15.0679 15.2304C15.0512 15.2235 15.036 15.2134 15.0233 15.2007L12.7331 12.9105C12.7203 12.8978 12.7102 12.8826 12.7032 12.866C12.6963 12.8493 12.6928 12.8314 12.6928 12.8134C12.6928 12.7953 12.6963 12.7775 12.7032 12.7608C12.7102 12.7441 12.7203 12.729 12.7331 12.7163L13.1376 12.3112L14.3508 12.5587L15.92 10.9627L12.8002 9.24538C12.766 9.21127 12.7467 9.16498 12.7466 9.11667C12.7465 9.06837 12.7656 9.022 12.7997 8.98776L13.4499 8.33823L17.2979 9.49009L18.5106 8.1938C18.8649 7.83944 19.4235 7.82389 19.7582 8.15865C20.0923 8.49315 20.0764 9.05188 19.7226 9.40611Z" fill="white"/>
</svg>