<svg width="24" height="24" viewBox="0 0 24 24" fill="none" xmlns="http://www.w3.org/2000/svg">
<path d="M5.5149 15.9739H8.01674V24.0001H-0.00946045V15.9739H2.49194V17.6081C2.4924 17.7304 2.54122 17.8476 2.62777 17.934C2.71431 18.0205 2.83155 18.0692 2.95388 18.0696H5.05383C5.17609 18.0691 5.29321 18.0203 5.37966 17.9339C5.46611 17.8474 5.51488 17.7303 5.51533 17.6081L5.5149 15.9739ZM14.4645 17.6081C14.4641 17.7303 14.4153 17.8474 14.3289 17.9339C14.2424 18.0203 14.1253 18.0691 14.003 18.0696H11.9078C11.7856 18.0691 11.6684 18.0203 11.582 17.9339C11.4955 17.8474 11.4468 17.7303 11.4463 17.6081V15.9739H8.93975V24.0001H16.9711V15.9739H14.4645V17.6081ZM7.33391 15.0509H12.2861C12.3384 15.053 12.4414 15.0492 12.4937 15.0509V7.01997H9.98758V8.65412C9.98775 8.71476 9.97593 8.77482 9.95279 8.83087C9.92965 8.88691 9.89565 8.93783 9.85276 8.98069C9.80987 9.02354 9.75892 9.05749 9.70285 9.08057C9.64678 9.10366 9.58671 9.11543 9.52607 9.1152H7.43085C7.37018 9.11543 7.31006 9.10365 7.25397 9.08053C7.19787 9.05742 7.14691 9.02343 7.10401 8.98053C7.0611 8.93763 7.02712 8.88667 7.00401 8.83057C6.98089 8.77448 6.96911 8.71436 6.96934 8.65369V7.01955H4.46279V15.0509H7.24641C7.2754 15.0463 7.30493 15.0463 7.33391 15.0509ZM7.89235 7.01997V8.19219H9.06456V7.0204L7.89235 7.01997ZM12.3693 17.1465H13.5415V15.9739H12.3693V17.1465ZM4.59232 15.9739H3.41539V17.1461H4.59232V15.9739ZM12.1111 15.1062C12.1231 15.0976 12.1527 15.0869 12.166 15.0788C12.1453 15.0823 12.1265 15.0918 12.1111 15.1062ZM20.3955 11.5201C20.4279 11.4309 20.4869 11.3539 20.5646 11.2994C20.6422 11.245 20.7347 11.2157 20.8296 11.2156H24.0095V7.2829H20.8296C20.7249 7.28175 20.6236 7.24575 20.5416 7.18058C20.4597 7.11541 20.4018 7.02479 20.3771 6.92304C20.3274 6.83072 20.3075 6.72534 20.3199 6.62126C20.3323 6.51718 20.3766 6.41946 20.4466 6.34144L22.694 4.09824L19.9156 1.32019L17.6681 3.56339C17.6038 3.62695 17.5224 3.67042 17.4338 3.68847C17.3452 3.70652 17.2533 3.69838 17.1693 3.66504C17.0508 3.64772 16.9421 3.59001 16.8613 3.50169C16.7806 3.41336 16.7328 3.29985 16.7262 3.18037V0H12.7939V3.17994C12.7807 3.28193 12.7406 3.37859 12.6779 3.46008C12.6151 3.54158 12.5319 3.605 12.4367 3.64391C12.3415 3.68282 12.2377 3.69583 12.1358 3.68161C12.034 3.66739 11.9377 3.62645 11.8568 3.56296L9.60928 1.31976L6.83509 4.09824L8.83381 6.09696C9.73281 6.10125 11.774 6.09353 12.6464 6.09696C13.2716 5.67364 14.0098 5.44841 14.7648 5.45059C15.3215 5.4507 15.8713 5.57319 16.3754 5.8094C16.8795 6.04561 17.3255 6.38975 17.6818 6.81747C18.0381 7.24518 18.2961 7.746 18.4373 8.28447C18.5786 8.82293 18.5998 9.38587 18.4993 9.93342C18.3989 10.481 18.1792 10.9997 17.856 11.453C17.5328 11.9062 17.1139 12.2829 16.629 12.5563C16.1441 12.8297 15.6049 12.9931 15.0498 13.035C14.4947 13.0769 13.9372 12.9962 13.4167 12.7987C13.4146 13.3485 13.4184 14.4959 13.4167 15.0509H16.8137C16.8617 14.9867 16.9219 14.9327 16.9909 14.8919C17.0599 14.8511 17.1363 14.8243 17.2157 14.8132C17.295 14.802 17.3758 14.8066 17.4534 14.8268C17.531 14.847 17.6038 14.8824 17.6676 14.9308L19.9156 17.1783L22.694 14.3955L20.4466 12.1566C20.3687 12.0712 20.3215 11.9623 20.3122 11.8471C20.303 11.7319 20.3323 11.6169 20.3955 11.5201Z" fill="white"/>
</svg>