<svg width="24" height="24" viewBox="0 0 24 24" fill="none" xmlns="http://www.w3.org/2000/svg">
<path d="M23.7797 7.39221L18.8953 0.632837C18.675 0.332837 18.3234 0.154712 17.9531 0.150024H6.10312C5.74219 0.150024 5.39531 0.318774 5.17969 0.609399L0.239062 7.11096C0.084375 7.31252 0 7.56096 0 7.81409V22.6875C0 23.3297 0.520312 23.85 1.1625 23.85H22.8375C23.4797 23.85 24 23.3297 24 22.6875V8.0719C24 7.82815 23.925 7.58909 23.7797 7.39221ZM6.67969 2.47971H17.3531L18.1031 3.52034H5.89219L6.67969 2.47971ZM18.2578 12.45L10.6969 20.011C10.2375 20.4703 9.49688 20.4703 9.0375 20.011L5.73281 16.7063C5.27344 16.2469 5.27344 15.5063 5.73281 15.0469C6.19219 14.5875 6.93281 14.5875 7.39219 15.0469L9.86719 17.5219L16.6031 10.7906C17.0672 10.3406 17.8125 10.3547 18.2625 10.8188C18.6984 11.2735 18.6984 11.9953 18.2578 12.45ZM3.30937 6.9094L4.12031 5.84534H19.7906L20.5594 6.9094H3.30937Z" fill="white" />
</svg>