<svg width="24" height="24" viewBox="0 0 24 24" fill="none" xmlns="http://www.w3.org/2000/svg">
<path d="M11.9999 19.7646C11.6107 19.7646 11.2941 20.0813 11.2941 20.4705C11.3328 21.407 12.6672 21.4067 12.7058 20.4705C12.7058 20.0813 12.3892 19.7646 11.9999 19.7646ZM18.3529 19.7646C17.9636 19.7646 17.647 20.0813 17.647 20.4705C17.6857 21.407 19.0202 21.4067 19.0588 20.4705C19.0588 20.0813 18.7422 19.7646 18.3529 19.7646Z" fill="white"/>
<path d="M20.4706 16.9412H3.52937C-1.15402 17.1356 -1.15039 23.8073 3.52937 24H20.4706C25.1539 23.8056 25.1503 17.1338 20.4706 16.9412ZM5.64702 22.5882C4.47939 22.5882 3.52937 21.6383 3.52937 20.4706C3.6457 17.6612 7.64881 17.6621 7.76467 20.4706C7.76467 21.6383 6.81474 22.5882 5.64702 22.5882ZM12 22.5882C10.8323 22.5882 9.88231 21.6383 9.88231 20.4706C9.99864 17.6612 14.0017 17.6621 14.1176 20.4706C14.1176 21.6383 13.1677 22.5882 12 22.5882ZM18.3529 22.5882C17.1852 22.5882 16.2353 21.6383 16.2353 20.4706C16.3515 17.6612 20.3547 17.6621 20.4706 20.4706C20.4706 21.6383 19.5206 22.5882 18.3529 22.5882Z" fill="white"/>
<path d="M5.64697 19.7647C5.25774 19.7647 4.94108 20.0813 4.94108 20.4706C4.97981 21.4071 6.31426 21.4068 6.35285 20.4706C6.35285 20.0813 6.03619 19.7647 5.64697 19.7647ZM2.11755 10.5882H7.76461V15.5294H2.11755V10.5882ZM9.17638 10.5882H14.8234V15.5294H9.17638V10.5882ZM16.2352 10.5882H21.8823V15.5294H16.2352V10.5882ZM11.294 3.65082C10.6362 3.88414 10.1267 4.43355 9.94984 5.11576L7.91247 5.79492L7.09497 8.24739L8.43431 8.69384L9.02857 6.91101L10.0885 6.55774C10.8499 8.15925 13.1507 8.15831 13.9114 6.55774L14.9713 6.91101L15.5656 8.69384L16.9049 8.24739L16.0874 5.79492L14.05 5.11576C13.8731 4.43355 13.3636 3.88414 12.7058 3.65082V1.41176H18.3528V0H5.64697V1.41176H11.294V3.65082Z" fill="white"/>
</svg>